<svg width="45" height="46" viewBox="0 0 45 46" fill="none" xmlns="http://www.w3.org/2000/svg">
<g id="Group">
<g id="Group_2">
<g id="Group_3">
<path id="Vector" d="M25.5687 21.9503C25.7014 22.2097 25.9653 22.3595 26.2381 22.3595C26.352 22.3595 26.469 22.3333 26.5777 22.2778C26.6219 22.2554 31.0342 20.014 33.2103 19.3266C33.6046 19.2014 33.8235 18.7801 33.6983 18.3858C33.5738 17.9915 33.1556 17.7719 32.7575 17.8964C30.4652 18.6213 26.083 20.8476 25.8971 20.9421C25.5282 21.1294 25.3813 21.5808 25.5687 21.9503Z" fill="white"/>
<path id="Vector_2" d="M26.2381 13.3645C26.352 13.3645 26.4689 13.3383 26.5777 13.2828C26.6219 13.2603 31.0342 11.019 33.2103 10.3316C33.6046 10.2064 33.8234 9.78509 33.6983 9.39084C33.5738 8.9965 33.1556 8.77689 32.7575 8.90136C30.4652 9.62626 26.0829 11.8526 25.8971 11.9471C25.5283 12.1344 25.3813 12.5857 25.5687 12.9553C25.7013 13.2146 25.9652 13.3645 26.2381 13.3645Z" fill="white"/>
<path id="Vector_3" d="M44.2272 11.8657C43.8127 11.8657 43.4777 12.2015 43.4777 12.6152V41.8502C43.4777 43.09 42.4687 44.099 41.2288 44.099H23.2381V42.3742C24.3311 41.9919 27.178 41.1006 29.9846 41.1006C36.5145 41.1006 40.9485 42.5466 40.9927 42.5616C41.2183 42.6365 41.4702 42.5991 41.6673 42.4581C41.863 42.3172 41.9784 42.0908 41.9784 41.8501V8.86723C41.9784 8.51568 41.7348 8.21129 41.3914 8.13557C41.3914 8.13557 40.8037 8.00442 39.7992 7.81994C39.3936 7.74501 39.0017 8.01487 38.9267 8.42115C38.8517 8.82893 39.1208 9.21949 39.5279 9.29443C39.911 9.36488 40.2318 9.42707 40.4791 9.47662V40.8539C38.7805 40.4086 35.0085 39.6013 29.9845 39.6013C26.7184 39.6013 23.5101 40.674 22.5176 41.0376C21.6353 40.6478 18.9682 39.6013 15.7418 39.6013C10.5784 39.6013 6.32513 40.4529 4.4976 40.8855V9.44736C5.99457 9.07929 10.4158 8.11756 15.7418 8.11756C18.4749 8.11756 20.8189 8.96834 21.7387 9.35293V38.8518C21.7387 39.1216 21.8841 39.3713 22.1188 39.5039C22.3534 39.6374 22.6428 39.6336 22.8744 39.4942C22.9486 39.45 30.3758 35.0137 36.9679 32.8166C37.2745 32.7139 37.4806 32.4283 37.4806 32.1052V1.37104C37.4806 1.12516 37.3599 0.895001 37.1575 0.754888C36.9566 0.614687 36.6988 0.582447 36.4672 0.668712C30.4695 2.91826 24.4007 6.69482 24.3399 6.73233C23.9891 6.95194 23.8819 7.41445 24.1015 7.7653C24.3204 8.11615 24.7829 8.22333 25.1345 8.00371C25.1899 7.96849 30.4695 4.68368 35.9814 2.46708V31.5686C30.8645 33.3467 25.522 36.25 23.2379 37.5497V8.86723C23.2379 8.58314 23.0775 8.32373 22.8234 8.19636C22.6944 8.13267 19.6225 6.61839 15.7418 6.61839C8.96831 6.61839 3.76075 8.08392 3.54184 8.14681C3.22024 8.23826 2.99834 8.53289 2.99834 8.86723V41.8503C2.99834 42.0849 3.10929 42.3068 3.29596 42.4485C3.4279 42.5482 3.58681 42.5999 3.74801 42.5999C3.81697 42.5999 3.88593 42.5902 3.95339 42.5707C4.00513 42.5565 9.18871 41.1007 15.7418 41.1007C18.4824 41.1007 20.8242 41.9538 21.7387 42.3368V44.0991H3.74801C2.50816 44.0991 1.49917 43.0901 1.49917 41.8503V12.6153C1.49917 12.2016 1.16334 11.8657 0.749585 11.8657C0.335833 11.8657 0 12.2016 0 12.6153V41.8503C0 43.9169 1.68136 45.5984 3.7481 45.5984H41.2288C43.2955 45.5984 44.9769 43.917 44.9769 41.8503V12.6153C44.9768 12.2015 44.6418 11.8657 44.2272 11.8657Z" fill="white"/>
<path id="Vector_4" d="M25.5687 17.453C25.7014 17.7124 25.9653 17.8622 26.2381 17.8622C26.352 17.8622 26.469 17.836 26.5777 17.7805C26.6219 17.7581 31.0342 15.5167 33.2103 14.8293C33.6046 14.7041 33.8235 14.2828 33.6983 13.8886C33.5738 13.4942 33.1556 13.2746 32.7575 13.3991C30.4652 14.124 26.083 16.3503 25.8971 16.4448C25.5282 16.6321 25.3813 17.0835 25.5687 17.453Z" fill="white"/>
<path id="Vector_5" d="M25.5687 26.448C25.7014 26.7074 25.9653 26.8572 26.2381 26.8572C26.352 26.8572 26.469 26.831 26.5777 26.7755C26.6219 26.7531 31.0342 24.5117 33.2103 23.8243C33.6046 23.6991 33.8235 23.2778 33.6983 22.8836C33.5738 22.4892 33.1556 22.2696 32.7575 22.3941C30.4652 23.119 26.083 25.3453 25.8971 25.4398C25.5282 25.6271 25.3813 26.0785 25.5687 26.448Z" fill="white"/>
<path id="Vector_6" d="M18.1622 14.5324C13.5333 13.4462 8.27325 14.83 8.05215 14.8892C7.65263 14.9964 7.41501 15.4072 7.52218 15.8075C7.61213 16.1425 7.91493 16.3629 8.24558 16.3629C8.31006 16.3629 8.37524 16.3547 8.44051 16.3374C8.49076 16.3232 13.5551 14.9911 17.8205 15.9919C18.2215 16.0856 18.6271 15.8359 18.7215 15.4326C18.8158 15.0301 18.5655 14.6268 18.1622 14.5324Z" fill="white"/>
<path id="Vector_7" d="M18.1622 19.0302C13.5333 17.9447 8.27325 19.3278 8.05215 19.387C7.65263 19.4942 7.41501 19.905 7.52218 20.3052C7.61213 20.6403 7.91493 20.8607 8.24558 20.8607C8.31006 20.8607 8.37524 20.8524 8.44051 20.8352C8.49076 20.821 13.5551 19.4889 17.8205 20.4896C18.2215 20.5834 18.6271 20.3337 18.7215 19.9304C18.8158 19.5279 18.5655 19.1246 18.1622 19.0302Z" fill="white"/>
<path id="Vector_8" d="M25.5687 30.9461C25.7014 31.2055 25.9653 31.3553 26.2381 31.3553C26.352 31.3553 26.469 31.3291 26.5777 31.2737C26.6219 31.2512 31.0342 29.0098 33.2103 28.3224C33.6046 28.1972 33.8235 27.7759 33.6983 27.3817C33.5738 26.9874 33.1556 26.7677 32.7575 26.8922C30.4652 27.6171 26.083 29.8434 25.8971 29.9379C25.5282 30.1252 25.3813 30.5766 25.5687 30.9461Z" fill="white"/>
<path id="Vector_9" d="M18.1622 23.5276C13.5333 22.4422 8.27325 23.8244 8.05215 23.8844C7.65263 23.9916 7.41501 24.4024 7.52218 24.8027C7.61213 25.1377 7.91493 25.3589 8.24558 25.3589C8.31006 25.3589 8.37524 25.3499 8.44051 25.3326C8.49076 25.3184 13.5551 23.9863 17.8205 24.9871C18.2215 25.0808 18.6271 24.8311 18.7215 24.4278C18.8158 24.0253 18.5655 23.622 18.1622 23.5276Z" fill="white"/>
<path id="Vector_10" d="M18.1622 32.5232C13.5333 31.437 8.27325 32.8208 8.05215 32.8801C7.65263 32.9872 7.41501 33.3981 7.52218 33.7983C7.61213 34.1333 7.91493 34.3545 8.24558 34.3545C8.31006 34.3545 8.37524 34.3456 8.44051 34.3283C8.49076 34.314 13.5551 32.982 17.8205 33.9827C18.2215 34.0756 18.6271 33.8268 18.7215 33.4235C18.8158 33.021 18.5655 32.6177 18.1622 32.5232Z" fill="white"/>
<path id="Vector_11" d="M18.1622 28.0256C13.5333 26.9394 8.27325 28.3225 8.05215 28.3825C7.65263 28.4896 7.41501 28.9005 7.52218 29.3007C7.61213 29.6358 7.91493 29.857 8.24558 29.857C8.31006 29.857 8.37524 29.848 8.44051 29.8307C8.49076 29.8165 13.5551 28.4844 17.8205 29.4851C18.2215 29.5788 18.6271 29.3292 18.7215 28.9259C18.8158 28.5234 18.5655 28.1201 18.1622 28.0256Z" fill="white"/>
</g>
</g>
</g>
</svg>
